<svg id="visual" viewBox="0 0 1920 1080" width="1920" height="1080" xmlns="http://www.w3.org/2000/svg" xmlns:xlink="http://www.w3.org/1999/xlink" version="1.1"><rect x="0" y="0" width="1920" height="1080" fill="#ffffff"></rect><path d="M0 790L45.7 781.5C91.3 773 182.7 756 274.2 758C365.7 760 457.3 781 548.8 776C640.3 771 731.7 740 823 740C914.3 740 1005.7 771 1097 772.8C1188.3 774.7 1279.7 747.3 1371.2 746.8C1462.7 746.3 1554.3 772.7 1645.8 765.5C1737.3 758.3 1828.7 717.7 1874.3 697.3L1920 677L1920 1081L1874.3 1081C1828.7 1081 1737.3 1081 1645.8 1081C1554.3 1081 1462.7 1081 1371.2 1081C1279.7 1081 1188.3 1081 1097 1081C1005.7 1081 914.3 1081 823 1081C731.7 1081 640.3 1081 548.8 1081C457.3 1081 365.7 1081 274.2 1081C182.7 1081 91.3 1081 45.7 1081L0 1081Z" fill="#ffc0cb"></path><path d="M0 857L45.7 844.8C91.3 832.7 182.7 808.3 274.2 803.7C365.7 799 457.3 814 548.8 819.5C640.3 825 731.7 821 823 802.7C914.3 784.3 1005.7 751.7 1097 757.7C1188.3 763.7 1279.7 808.3 1371.2 821.8C1462.7 835.3 1554.3 817.7 1645.8 811.8C1737.3 806 1828.7 812 1874.3 815L1920 818L1920 1081L1874.3 1081C1828.7 1081 1737.3 1081 1645.8 1081C1554.3 1081 1462.7 1081 1371.2 1081C1279.7 1081 1188.3 1081 1097 1081C1005.7 1081 914.3 1081 823 1081C731.7 1081 640.3 1081 548.8 1081C457.3 1081 365.7 1081 274.2 1081C182.7 1081 91.3 1081 45.7 1081L0 1081Z" fill="#f6b2bd"></path><path d="M0 844L45.7 836C91.3 828 182.7 812 274.2 807.7C365.7 803.3 457.3 810.7 548.8 823.2C640.3 835.7 731.7 853.3 823 868C914.3 882.7 1005.7 894.3 1097 880.3C1188.3 866.3 1279.7 826.7 1371.2 825.5C1462.7 824.3 1554.3 861.7 1645.8 876C1737.3 890.3 1828.7 881.7 1874.3 877.3L1920 873L1920 1081L1874.3 1081C1828.7 1081 1737.3 1081 1645.8 1081C1554.3 1081 1462.7 1081 1371.2 1081C1279.7 1081 1188.3 1081 1097 1081C1005.7 1081 914.3 1081 823 1081C731.7 1081 640.3 1081 548.8 1081C457.3 1081 365.7 1081 274.2 1081C182.7 1081 91.3 1081 45.7 1081L0 1081Z" fill="#eca4af"></path><path d="M0 936L45.7 936.3C91.3 936.7 182.7 937.3 274.2 927.5C365.7 917.7 457.3 897.3 548.8 903.5C640.3 909.7 731.7 942.3 823 945.3C914.3 948.3 1005.7 921.7 1097 908.7C1188.3 895.7 1279.7 896.3 1371.2 900.2C1462.7 904 1554.3 911 1645.8 918.8C1737.3 926.7 1828.7 935.3 1874.3 939.7L1920 944L1920 1081L1874.3 1081C1828.7 1081 1737.3 1081 1645.8 1081C1554.3 1081 1462.7 1081 1371.2 1081C1279.7 1081 1188.3 1081 1097 1081C1005.7 1081 914.3 1081 823 1081C731.7 1081 640.3 1081 548.8 1081C457.3 1081 365.7 1081 274.2 1081C182.7 1081 91.3 1081 45.7 1081L0 1081Z" fill="#e296a1"></path><path d="M0 956L45.7 955.5C91.3 955 182.7 954 274.2 960.8C365.7 967.7 457.3 982.3 548.8 982.8C640.3 983.3 731.7 969.7 823 964.5C914.3 959.3 1005.7 962.7 1097 966.8C1188.3 971 1279.7 976 1371.2 979C1462.7 982 1554.3 983 1645.8 978.5C1737.3 974 1828.7 964 1874.3 959L1920 954L1920 1081L1874.3 1081C1828.7 1081 1737.3 1081 1645.8 1081C1554.3 1081 1462.7 1081 1371.2 1081C1279.7 1081 1188.3 1081 1097 1081C1005.7 1081 914.3 1081 823 1081C731.7 1081 640.3 1081 548.8 1081C457.3 1081 365.7 1081 274.2 1081C182.7 1081 91.3 1081 45.7 1081L0 1081Z" fill="#d88894"></path></svg>