<svg id="visual" viewBox="0 0 1920 1080" width="1920" height="1080" xmlns="http://www.w3.org/2000/svg" xmlns:xlink="http://www.w3.org/1999/xlink" version="1.1"><rect x="0" y="0" width="1920" height="1080" fill="#07121a"></rect><path d="M0 764L21.3 757C42.7 750 85.3 736 128 718.2C170.7 700.3 213.3 678.7 256 673C298.7 667.3 341.3 677.7 384 685.8C426.7 694 469.3 700 512 717.2C554.7 734.3 597.3 762.7 640 767.2C682.7 771.7 725.3 752.3 768 750.8C810.7 749.3 853.3 765.7 896 777.3C938.7 789 981.3 796 1024 781.7C1066.7 767.3 1109.3 731.7 1152 731.5C1194.7 731.3 1237.3 766.7 1280 772C1322.7 777.3 1365.3 752.7 1408 740.3C1450.7 728 1493.3 728 1536 737.7C1578.7 747.3 1621.3 766.7 1664 762.2C1706.7 757.7 1749.3 729.3 1792 719.3C1834.7 709.3 1877.3 717.7 1898.7 721.8L1920 726L1920 1081L1898.7 1081C1877.3 1081 1834.7 1081 1792 1081C1749.3 1081 1706.7 1081 1664 1081C1621.3 1081 1578.7 1081 1536 1081C1493.3 1081 1450.7 1081 1408 1081C1365.3 1081 1322.7 1081 1280 1081C1237.3 1081 1194.7 1081 1152 1081C1109.3 1081 1066.7 1081 1024 1081C981.3 1081 938.7 1081 896 1081C853.3 1081 810.7 1081 768 1081C725.3 1081 682.7 1081 640 1081C597.3 1081 554.7 1081 512 1081C469.3 1081 426.7 1081 384 1081C341.3 1081 298.7 1081 256 1081C213.3 1081 170.7 1081 128 1081C85.3 1081 42.7 1081 21.3 1081L0 1081Z" fill="#2d3a81"></path><path d="M0 831L21.3 822.3C42.7 813.7 85.3 796.3 128 780.5C170.7 764.7 213.3 750.3 256 739.2C298.7 728 341.3 720 384 727.7C426.7 735.3 469.3 758.7 512 760.8C554.7 763 597.3 744 640 746.5C682.7 749 725.3 773 768 773.2C810.7 773.3 853.3 749.7 896 741.3C938.7 733 981.3 740 1024 753.5C1066.7 767 1109.3 787 1152 793.3C1194.7 799.7 1237.3 792.3 1280 776.7C1322.7 761 1365.3 737 1408 724.7C1450.7 712.3 1493.3 711.7 1536 721.8C1578.7 732 1621.3 753 1664 768.2C1706.7 783.3 1749.3 792.7 1792 790.3C1834.7 788 1877.3 774 1898.7 767L1920 760L1920 1081L1898.7 1081C1877.3 1081 1834.7 1081 1792 1081C1749.3 1081 1706.7 1081 1664 1081C1621.3 1081 1578.7 1081 1536 1081C1493.3 1081 1450.7 1081 1408 1081C1365.3 1081 1322.7 1081 1280 1081C1237.3 1081 1194.7 1081 1152 1081C1109.3 1081 1066.7 1081 1024 1081C981.3 1081 938.7 1081 896 1081C853.3 1081 810.7 1081 768 1081C725.3 1081 682.7 1081 640 1081C597.3 1081 554.7 1081 512 1081C469.3 1081 426.7 1081 384 1081C341.3 1081 298.7 1081 256 1081C213.3 1081 170.7 1081 128 1081C85.3 1081 42.7 1081 21.3 1081L0 1081Z" fill="#1a4b8c"></path><path d="M0 768L21.3 780.2C42.7 792.3 85.3 816.7 128 829.7C170.7 842.7 213.3 844.3 256 836.2C298.7 828 341.3 810 384 812.3C426.7 814.7 469.3 837.3 512 851.8C554.7 866.3 597.3 872.7 640 867.8C682.7 863 725.3 847 768 832.2C810.7 817.3 853.3 803.7 896 807.5C938.7 811.3 981.3 832.7 1024 841C1066.7 849.3 1109.3 844.7 1152 848.5C1194.7 852.3 1237.3 864.7 1280 868.2C1322.7 871.7 1365.3 866.3 1408 862C1450.7 857.7 1493.3 854.3 1536 855.3C1578.7 856.3 1621.3 861.7 1664 861C1706.7 860.3 1749.3 853.7 1792 845.8C1834.7 838 1877.3 829 1898.7 824.5L1920 820L1920 1081L1898.7 1081C1877.3 1081 1834.7 1081 1792 1081C1749.3 1081 1706.7 1081 1664 1081C1621.3 1081 1578.7 1081 1536 1081C1493.3 1081 1450.7 1081 1408 1081C1365.3 1081 1322.7 1081 1280 1081C1237.3 1081 1194.7 1081 1152 1081C1109.3 1081 1066.7 1081 1024 1081C981.3 1081 938.7 1081 896 1081C853.3 1081 810.7 1081 768 1081C725.3 1081 682.7 1081 640 1081C597.3 1081 554.7 1081 512 1081C469.3 1081 426.7 1081 384 1081C341.3 1081 298.7 1081 256 1081C213.3 1081 170.7 1081 128 1081C85.3 1081 42.7 1081 21.3 1081L0 1081Z" fill="#015a93"></path><path d="M0 830L21.3 839.8C42.7 849.7 85.3 869.3 128 875.7C170.7 882 213.3 875 256 875.7C298.7 876.3 341.3 884.7 384 883.7C426.7 882.7 469.3 872.3 512 865.3C554.7 858.3 597.3 854.7 640 851.5C682.7 848.3 725.3 845.7 768 846.8C810.7 848 853.3 853 896 857C938.7 861 981.3 864 1024 869.8C1066.7 875.7 1109.3 884.3 1152 878.7C1194.7 873 1237.3 853 1280 849.2C1322.7 845.3 1365.3 857.7 1408 862.8C1450.7 868 1493.3 866 1536 863.7C1578.7 861.3 1621.3 858.7 1664 859.8C1706.7 861 1749.3 866 1792 873.2C1834.7 880.3 1877.3 889.7 1898.7 894.3L1920 899L1920 1081L1898.7 1081C1877.3 1081 1834.7 1081 1792 1081C1749.3 1081 1706.7 1081 1664 1081C1621.3 1081 1578.7 1081 1536 1081C1493.3 1081 1450.7 1081 1408 1081C1365.3 1081 1322.7 1081 1280 1081C1237.3 1081 1194.7 1081 1152 1081C1109.3 1081 1066.7 1081 1024 1081C981.3 1081 938.7 1081 896 1081C853.3 1081 810.7 1081 768 1081C725.3 1081 682.7 1081 640 1081C597.3 1081 554.7 1081 512 1081C469.3 1081 426.7 1081 384 1081C341.3 1081 298.7 1081 256 1081C213.3 1081 170.7 1081 128 1081C85.3 1081 42.7 1081 21.3 1081L0 1081Z" fill="#006898"></path><path d="M0 940L21.3 938.7C42.7 937.3 85.3 934.7 128 924.5C170.7 914.3 213.3 896.7 256 893.7C298.7 890.7 341.3 902.3 384 902.5C426.7 902.7 469.3 891.3 512 889C554.7 886.7 597.3 893.3 640 902.7C682.7 912 725.3 924 768 924.8C810.7 925.7 853.3 915.3 896 911C938.7 906.7 981.3 908.3 1024 911.2C1066.7 914 1109.3 918 1152 913.5C1194.7 909 1237.3 896 1280 888.2C1322.7 880.3 1365.3 877.7 1408 877.2C1450.7 876.7 1493.3 878.3 1536 886C1578.7 893.7 1621.3 907.3 1664 919.7C1706.7 932 1749.3 943 1792 948.3C1834.7 953.7 1877.3 953.3 1898.7 953.2L1920 953L1920 1081L1898.7 1081C1877.3 1081 1834.7 1081 1792 1081C1749.3 1081 1706.7 1081 1664 1081C1621.3 1081 1578.7 1081 1536 1081C1493.3 1081 1450.7 1081 1408 1081C1365.3 1081 1322.7 1081 1280 1081C1237.3 1081 1194.7 1081 1152 1081C1109.3 1081 1066.7 1081 1024 1081C981.3 1081 938.7 1081 896 1081C853.3 1081 810.7 1081 768 1081C725.3 1081 682.7 1081 640 1081C597.3 1081 554.7 1081 512 1081C469.3 1081 426.7 1081 384 1081C341.3 1081 298.7 1081 256 1081C213.3 1081 170.7 1081 128 1081C85.3 1081 42.7 1081 21.3 1081L0 1081Z" fill="#18759a"></path><path d="M0 959L21.3 955.8C42.7 952.7 85.3 946.3 128 941.7C170.7 937 213.3 934 256 943.7C298.7 953.3 341.3 975.7 384 976.3C426.7 977 469.3 956 512 947.7C554.7 939.3 597.3 943.7 640 952.7C682.7 961.7 725.3 975.3 768 981.7C810.7 988 853.3 987 896 981.5C938.7 976 981.3 966 1024 961.2C1066.7 956.3 1109.3 956.7 1152 957.8C1194.7 959 1237.3 961 1280 959.7C1322.7 958.3 1365.3 953.7 1408 950C1450.7 946.3 1493.3 943.7 1536 947.2C1578.7 950.7 1621.3 960.3 1664 967C1706.7 973.7 1749.3 977.3 1792 972.8C1834.7 968.3 1877.3 955.7 1898.7 949.3L1920 943L1920 1081L1898.7 1081C1877.3 1081 1834.7 1081 1792 1081C1749.3 1081 1706.7 1081 1664 1081C1621.3 1081 1578.7 1081 1536 1081C1493.3 1081 1450.7 1081 1408 1081C1365.3 1081 1322.7 1081 1280 1081C1237.3 1081 1194.7 1081 1152 1081C1109.3 1081 1066.7 1081 1024 1081C981.3 1081 938.7 1081 896 1081C853.3 1081 810.7 1081 768 1081C725.3 1081 682.7 1081 640 1081C597.3 1081 554.7 1081 512 1081C469.3 1081 426.7 1081 384 1081C341.3 1081 298.7 1081 256 1081C213.3 1081 170.7 1081 128 1081C85.3 1081 42.7 1081 21.3 1081L0 1081Z" fill="#32829c"></path><path d="M0 1014L21.3 1016.7C42.7 1019.3 85.3 1024.7 128 1028.2C170.7 1031.7 213.3 1033.3 256 1028.3C298.7 1023.3 341.3 1011.7 384 1003.8C426.7 996 469.3 992 512 991.8C554.7 991.7 597.3 995.3 640 1000.3C682.7 1005.3 725.3 1011.7 768 1013.8C810.7 1016 853.3 1014 896 1013.5C938.7 1013 981.3 1014 1024 1015.2C1066.7 1016.3 1109.3 1017.7 1152 1013C1194.7 1008.3 1237.3 997.7 1280 998.5C1322.7 999.3 1365.3 1011.7 1408 1012C1450.7 1012.3 1493.3 1000.7 1536 995.5C1578.7 990.3 1621.3 991.7 1664 998.7C1706.7 1005.7 1749.3 1018.3 1792 1021C1834.7 1023.7 1877.3 1016.3 1898.7 1012.7L1920 1009L1920 1081L1898.7 1081C1877.3 1081 1834.7 1081 1792 1081C1749.3 1081 1706.7 1081 1664 1081C1621.3 1081 1578.7 1081 1536 1081C1493.3 1081 1450.7 1081 1408 1081C1365.3 1081 1322.7 1081 1280 1081C1237.3 1081 1194.7 1081 1152 1081C1109.3 1081 1066.7 1081 1024 1081C981.3 1081 938.7 1081 896 1081C853.3 1081 810.7 1081 768 1081C725.3 1081 682.7 1081 640 1081C597.3 1081 554.7 1081 512 1081C469.3 1081 426.7 1081 384 1081C341.3 1081 298.7 1081 256 1081C213.3 1081 170.7 1081 128 1081C85.3 1081 42.7 1081 21.3 1081L0 1081Z" fill="#4b8e9d"></path></svg>